<svg width="2054" height="2054" viewBox="0 0 2054 2054" fill="none" xmlns="http://www.w3.org/2000/svg">
<rect width="2054" height="2054" fill="#1E1E1E"/>
<mask id="path-1-inside-1_0_1" fill="white">
<path fill-rule="evenodd" clip-rule="evenodd" d="M1033.5 1997.47C1350.55 1813.4 1568 1435.29 1568 998.736C1568 562.181 1350.55 184.069 1033.5 1.71977e-05C716.446 184.069 499 562.181 499 998.736C499 1435.29 716.446 1813.4 1033.5 1997.47Z"/>
</mask>
<path fill-rule="evenodd" clip-rule="evenodd" d="M1033.5 1997.47C1350.55 1813.4 1568 1435.29 1568 998.736C1568 562.181 1350.55 184.069 1033.5 1.71977e-05C716.446 184.069 499 562.181 499 998.736C499 1435.29 716.446 1813.4 1033.5 1997.47Z" fill="black" fill-opacity="0.2"/>
<path d="M1033.5 1997.47L983.292 2083.95L1033.5 2113.1L1083.71 2083.95L1033.5 1997.47ZM1033.5 1.71977e-05L1083.71 -86.4821L1033.5 -115.631L983.292 -86.4821L1033.5 1.71977e-05ZM1468 998.736C1468 1403.18 1266.59 1746.52 983.292 1910.99L1083.71 2083.95C1434.52 1880.28 1668 1467.4 1668 998.736H1468ZM983.292 86.4822C1266.59 250.95 1468 594.288 1468 998.736H1668C1668 530.073 1434.52 117.187 1083.71 -86.4821L983.292 86.4822ZM599 998.736C599 594.288 800.415 250.95 1083.71 86.4822L983.292 -86.4821C632.476 117.187 399 530.073 399 998.736H599ZM1083.71 1910.99C800.415 1746.52 599 1403.18 599 998.736H399C399 1467.4 632.476 1880.28 983.292 2083.95L1083.71 1910.99Z" fill="white" mask="url(#path-1-inside-1_0_1)"/>
<line x1="1020" y1="23.8254" x2="1027" y2="2027.83" stroke="white" stroke-width="100"/>
<line x1="60" y1="1012" x2="1993" y2="1012" stroke="white" stroke-width="100"/>
<circle cx="1027" cy="1027" r="977" stroke="white" stroke-width="100"/>
<mask id="path-6-inside-2_0_1" fill="white">
<path fill-rule="evenodd" clip-rule="evenodd" d="M1775 1728.23C1584.47 1929.27 1318.95 2054 1025.27 2054C731.312 2054 465.572 1929.03 275 1727.66C441.662 1457.94 715.394 1282 1024.82 1282C1334.47 1282 1608.37 1458.19 1775 1728.23Z"/>
</mask>
<path d="M1775 1728.23L1847.58 1797.02L1900.5 1741.19L1860.1 1675.72L1775 1728.23ZM275 1727.66L189.93 1675.09L149.498 1740.53L202.368 1796.4L275 1727.66ZM1702.42 1659.44C1529.6 1841.79 1289.85 1954 1025.27 1954V2154C1348.05 2154 1639.33 2016.75 1847.58 1797.02L1702.42 1659.44ZM1025.27 1954C760.443 1954 520.484 1841.57 347.632 1658.92L202.368 1796.4C410.66 2016.49 702.181 2154 1025.27 2154V1954ZM360.07 1780.22C511.589 1535.01 755.531 1382 1024.82 1382V1182C675.258 1182 371.736 1380.87 189.93 1675.09L360.07 1780.22ZM1024.82 1382C1294.3 1382 1538.4 1535.23 1689.9 1780.74L1860.1 1675.72C1678.34 1381.15 1374.64 1182 1024.82 1182V1382Z" fill="white" mask="url(#path-6-inside-2_0_1)"/>
<mask id="path-8-inside-3_0_1" fill="white">
<path fill-rule="evenodd" clip-rule="evenodd" d="M1861 434.671C1649.13 630.501 1353.87 752 1027.3 752C700.419 752 404.916 630.27 193 434.114C378.328 171.382 682.718 0 1026.8 0C1371.13 0 1675.71 171.625 1861 434.671Z"/>
</mask>
<path d="M1861 434.671L1928.88 508.108L1993.18 448.672L1942.75 377.084L1861 434.671ZM193 434.114L111.284 376.472L60.8138 448.022L125.071 507.501L193 434.114ZM1793.12 361.235C1599.97 539.763 1329.04 652 1027.3 652V852C1378.7 852 1698.28 721.239 1928.88 508.108L1793.12 361.235ZM1027.3 652C725.273 652 454.119 539.55 260.929 360.727L125.071 507.501C355.713 720.991 675.565 852 1027.3 852V652ZM274.716 491.755C442.241 254.262 716.808 100 1026.8 100V-100C648.628 -100 314.415 88.5033 111.284 376.472L274.716 491.755ZM1026.8 100C1337.02 100 1611.75 254.48 1779.25 492.259L1942.75 377.084C1739.66 88.7699 1405.25 -100 1026.8 -100V100Z" fill="white" mask="url(#path-8-inside-3_0_1)"/>
</svg>
