<?xml version="1.0" standalone="no"?>
<!DOCTYPE svg PUBLIC "-//W3C//DTD SVG 20010904//EN"
 "http://www.w3.org/TR/2001/REC-SVG-20010904/DTD/svg10.dtd">
<svg version="1.0" xmlns="http://www.w3.org/2000/svg"
 width="512.000000pt" height="512.000000pt" viewBox="0 0 512.000000 512.000000"
 preserveAspectRatio="xMidYMid meet">

<g transform="translate(0.000000,512.000000) scale(0.100000,-0.100000)"
fill="#ffffff" stroke="none">
<path d="M2305 4899 c-187 -20 -439 -81 -612 -150 -134 -53 -313 -147 -443
-234 -353 -234 -614 -533 -804 -916 -351 -707 -322 -1545 76 -2226 349 -598
948 -1012 1638 -1133 158 -28 467 -38 631 -21 625 65 1210 383 1597 869 302
381 491 872 507 1322 l4 125 -13 -85 c-25 -159 -48 -255 -96 -401 -106 -324
-272 -602 -507 -849 -96 -101 -338 -307 -478 -407 -277 -197 -609 -329 -951
-379 -158 -23 -457 -23 -608 0 -527 82 -990 334 -1323 721 -263 304 -429 650
-504 1050 -31 160 -37 465 -14 645 123 974 880 1737 1859 1875 130 19 412 21
542 5 419 -51 819 -226 1144 -498 119 -99 313 -304 299 -316 -2 -1 -75 -53
-163 -115 l-159 -112 -30 38 c-60 77 -235 240 -327 305 -518 368 -1191 428
-1759 157 -627 -298 -1012 -932 -988 -1624 13 -374 124 -688 348 -988 248
-332 622 -567 1044 -657 128 -28 420 -38 560 -20 503 63 967 355 1241 782 131
204 238 495 259 703 l6 60 -36 -95 c-162 -438 -479 -813 -894 -1058 -394 -232
-852 -282 -1281 -141 -544 179 -945 646 -1042 1214 -29 169 -22 441 15 595 73
307 199 532 417 751 231 231 477 364 813 436 126 28 457 25 590 -5 278 -62
519 -181 715 -355 71 -63 192 -194 192 -206 -1 -3 -89 -68 -196 -143 l-196
-137 -72 72 c-236 234 -584 346 -904 293 -445 -75 -782 -397 -873 -837 -27
-132 -23 -339 9 -461 50 -188 141 -348 276 -484 140 -141 288 -227 483 -281
89 -25 114 -28 268 -28 154 0 179 3 268 28 277 77 489 236 636 478 22 37 47
83 55 104 15 35 11 32 -69 -44 -210 -198 -516 -345 -794 -381 -355 -46 -718
154 -877 485 -64 131 -86 225 -86 370 -2 256 87 463 275 642 93 89 198 151
325 193 84 29 114 34 228 38 149 5 236 -9 364 -60 91 -36 218 -119 284 -186
l48 -50 -28 -21 c-16 -11 -108 -76 -204 -144 l-174 -124 -44 28 c-184 117
-437 1 -472 -215 -30 -189 114 -359 306 -360 60 0 81 4 138 33 107 52 176 160
176 273 l0 39 196 94 c108 52 198 95 199 95 1 0 83 39 181 86 99 47 262 126
364 174 102 48 253 120 335 160 83 40 229 110 326 155 170 81 340 164 347 170
4 4 -275 474 -292 492 -9 10 -29 1 -90 -44 l-79 -56 -35 44 c-20 24 -79 88
-132 142 -384 397 -872 637 -1428 702 -135 16 -375 18 -507 4z"/>
</g>
</svg>
