<?xml version="1.0" standalone="no"?>
<!DOCTYPE svg PUBLIC "-//W3C//DTD SVG 20010904//EN"
 "http://www.w3.org/TR/2001/REC-SVG-20010904/DTD/svg10.dtd">
<svg version="1.0" xmlns="http://www.w3.org/2000/svg"
 width="129.000000pt" height="129.000000pt" viewBox="0 0 129.000000 129.000000"
 preserveAspectRatio="xMidYMid meet">

<g transform="translate(0.000000,129.000000) scale(0.100000,-0.100000)"
fill="#000000" stroke="none">
<path d="M756 1134 l-149 -156 51 -51 52 -52 152 153 153 152 -55 55 -56 55
-148 -156z"/>
<path d="M357 922 c-87 -88 -96 -100 -82 -112 14 -12 28 -1 115 85 76 76 97
102 88 112 -6 7 -13 13 -17 13 -3 0 -50 -44 -104 -98z"/>
<path d="M402 887 c-67 -67 -122 -127 -122 -132 0 -6 45 -55 100 -110 l100
-99 48 47 c40 40 51 46 60 34 10 -11 7 -24 -14 -60 -52 -95 -39 -206 30 -248
39 -24 116 -26 116 -4 0 11 -11 15 -40 15 -44 0 -80 26 -80 58 0 110 177 292
286 295 44 1 64 -19 68 -69 2 -26 9 -40 20 -42 13 -3 16 5 16 40 0 123 -123
176 -255 109 -52 -26 -85 -31 -85 -12 0 4 20 27 45 51 l45 44 -102 103 c-57
57 -105 103 -108 103 -3 0 -60 -55 -128 -123z"/>
<path d="M152 527 l-152 -152 53 -53 52 -52 153 153 152 152 -53 53 -52 52
-153 -153z"/>
<path d="M750 506 c0 -48 15 -53 50 -17 40 40 38 51 -10 51 -39 0 -40 -1 -40
-34z"/>
<path d="M920 495 c-14 -51 -72 -111 -117 -121 -50 -11 -53 -13 -53 -45 0 -31
1 -31 38 -24 59 11 100 34 141 81 35 40 61 99 61 138 0 11 -9 16 -29 16 -25 0
-30 -5 -41 -45z"/>
<path d="M1076 492 c-18 -138 -137 -257 -278 -277 -45 -7 -48 -9 -48 -38 l0
-30 55 6 c164 17 315 167 332 330 l6 57 -30 0 c-29 0 -31 -3 -37 -48z"/>
<path d="M1225 493 c-31 -234 -194 -396 -427 -428 -45 -6 -48 -8 -48 -36 0
-25 4 -29 30 -29 96 0 243 60 327 135 98 86 164 214 179 348 l7 57 -31 0 c-29
0 -31 -3 -37 -47z"/>
</g>
</svg>
